<svg id="Layer_1" data-name="Layer 1" xmlns="http://www.w3.org/2000/svg" viewBox="0 0 280 300"><defs><style>.cls-1{fill:#97cf26;}.cls-2{fill:#a169f7;}.cls-3{fill:#ff6163;}.cls-4{fill:#0af;}</style></defs><circle class="cls-1" cx="83.8" cy="162.45" r="14.63"/><circle class="cls-2" cx="56.29" cy="162.45" r="6.81"/><circle class="cls-3" cx="83.8" cy="134.94" r="9.42"/><circle class="cls-4" cx="56.29" cy="134.94" r="12.03"/><path d="M136.48,169.18h7.59L130,130.88h-5.51l-14.07,38.3H118l2.69-7.31h13.08l2.69,7.31-13.66-13.07,4.43-12.05,4.42,12.05h-8.85ZM162.9,143l-7,19-7-19h-7.13l9.61,26.15h9L170,143H162.9M173,143h7.14v26.15H173Z"/><circle cx="176.62" cy="135.46" r="4.6"/><path d="M205.36,148.79V143h-8.55v-7.21h-7.13V143H184v5.76h5.65V160c0,5.81,2.9,9.68,10.31,9.68a15.63,15.63,0,0,0,5.37-1.05l-.87-5.65a12.11,12.11,0,0,1-3.13.42c-2.12,0-4.55-.91-4.55-3.84V148.79h8.55m16.37,14.41a7,7,0,1,1,7.2-7,7.13,7.13,0,0,1-7.2,7m0-20.84a13.7,13.7,0,1,0,14,13.7,13.86,13.86,0,0,0-14-13.7"/></svg>